<?xml version="1.0" encoding="UTF-8"?>
<mxfile host="app.diagrams.net" modified="2024-03-14T12:00:00.000Z" agent="Mozilla/5.0" version="21.7.5" etag="your-etag" type="device">
  <diagram id="data-pipeline" name="FarmTech Data Pipeline">
    <mxGraphModel dx="1422" dy="762" grid="1" gridSize="10" guides="1" tooltips="1" connect="1" arrows="1" fold="1" page="1" pageScale="1" pageWidth="1169" pageHeight="827" math="0" shadow="0">
      <root>
        <mxCell id="0"/>
        <mxCell id="1" parent="0"/>
        
        <!-- IoT Devices -->
        <mxCell id="iot-devices" value="IoT Devices" style="shape=mxgraph.aws4.iot_device;html=1;dashed=0;fillColor=#232F3E;strokeColor=none;verticalLabelPosition=bottom;verticalAlign=top;align=center;html=1;fontSize=11;fontStyle=0;aspect=fixed;pointerEvents=1;" vertex="1" parent="1">
          <mxGeometry x="40" y="40" width="78" height="78" as="geometry"/>
        </mxCell>
        
        <!-- IoT Core -->
        <mxCell id="iot-core" value="IoT Core" style="shape=mxgraph.aws4.iot_core;html=1;dashed=0;fillColor=#232F3E;strokeColor=none;verticalLabelPosition=bottom;verticalAlign=top;align=center;html=1;fontSize=11;fontStyle=0;aspect=fixed;pointerEvents=1;" vertex="1" parent="1">
          <mxGeometry x="200" y="40" width="78" height="78" as="geometry"/>
        </mxCell>
        
        <!-- Kinesis -->
        <mxCell id="kinesis" value="Kinesis Data Streams" style="shape=mxgraph.aws4.kinesis_data_streams;html=1;dashed=0;fillColor=#232F3E;strokeColor=none;verticalLabelPosition=bottom;verticalAlign=top;align=center;html=1;fontSize=11;fontStyle=0;aspect=fixed;pointerEvents=1;" vertex="1" parent="1">
          <mxGeometry x="360" y="40" width="78" height="78" as="geometry"/>
        </mxCell>
        
        <!-- Lambda -->
        <mxCell id="lambda" value="Lambda" style="shape=mxgraph.aws4.lambda;html=1;dashed=0;fillColor=#232F3E;strokeColor=none;verticalLabelPosition=bottom;verticalAlign=top;align=center;html=1;fontSize=11;fontStyle=0;aspect=fixed;pointerEvents=1;" vertex="1" parent="1">
          <mxGeometry x="520" y="40" width="78" height="78" as="geometry"/>
        </mxCell>
        
        <!-- S3 -->
        <mxCell id="s3" value="S3 Data Lake" style="shape=mxgraph.aws4.s3;html=1;dashed=0;fillColor=#232F3E;strokeColor=none;verticalLabelPosition=bottom;verticalAlign=top;align=center;html=1;fontSize=11;fontStyle=0;aspect=fixed;pointerEvents=1;" vertex="1" parent="1">
          <mxGeometry x="680" y="40" width="78" height="78" as="geometry"/>
        </mxCell>
        
        <!-- Athena -->
        <mxCell id="athena" value="Athena" style="shape=mxgraph.aws4.athena;html=1;dashed=0;fillColor=#232F3E;strokeColor=none;verticalLabelPosition=bottom;verticalAlign=top;align=center;html=1;fontSize=11;fontStyle=0;aspect=fixed;pointerEvents=1;" vertex="1" parent="1">
          <mxGeometry x="520" y="160" width="78" height="78" as="geometry"/>
        </mxCell>
        
        <!-- SageMaker -->
        <mxCell id="sagemaker" value="SageMaker" style="shape=mxgraph.aws4.sagemaker;html=1;dashed=0;fillColor=#232F3E;strokeColor=none;verticalLabelPosition=bottom;verticalAlign=top;align=center;html=1;fontSize=11;fontStyle=0;aspect=fixed;pointerEvents=1;" vertex="1" parent="1">
          <mxGeometry x="360" y="160" width="78" height="78" as="geometry"/>
        </mxCell>
        
        <!-- QuickSight -->
        <mxCell id="quicksight" value="QuickSight" style="shape=mxgraph.aws4.quicksight;html=1;dashed=0;fillColor=#232F3E;strokeColor=none;verticalLabelPosition=bottom;verticalAlign=top;align=center;html=1;fontSize=11;fontStyle=0;aspect=fixed;pointerEvents=1;" vertex="1" parent="1">
          <mxGeometry x="200" y="160" width="78" height="78" as="geometry"/>
        </mxCell>
        
        <!-- Connections -->
        <mxCell id="conn1" value="Send Data" style="endArrow=classic;html=1;exitX=1;exitY=0.5;exitDx=0;exitDy=0;entryX=0;entryY=0.5;entryDx=0;entryDy=0;" edge="1" parent="1" source="iot-devices" target="iot-core">
          <mxGeometry width="50" height="50" relative="1" as="geometry"/>
        </mxCell>
        
        <mxCell id="conn2" value="Stream" style="endArrow=classic;html=1;exitX=1;exitY=0.5;exitDx=0;exitDy=0;entryX=0;entryY=0.5;entryDx=0;entryDy=0;" edge="1" parent="1" source="iot-core" target="kinesis">
          <mxGeometry width="50" height="50" relative="1" as="geometry"/>
        </mxCell>
        
        <mxCell id="conn3" value="Process" style="endArrow=classic;html=1;exitX=1;exitY=0.5;exitDx=0;exitDy=0;entryX=0;entryY=0.5;entryDx=0;entryDy=0;" edge="1" parent="1" source="kinesis" target="lambda">
          <mxGeometry width="50" height="50" relative="1" as="geometry"/>
        </mxCell>
        
        <mxCell id="conn4" value="Store" style="endArrow=classic;html=1;exitX=1;exitY=0.5;exitDx=0;exitDy=0;entryX=0;entryY=0.5;entryDx=0;entryDy=0;" edge="1" parent="1" source="lambda" target="s3">
          <mxGeometry width="50" height="50" relative="1" as="geometry"/>
        </mxCell>
        
        <mxCell id="conn5" value="Query" style="endArrow=classic;html=1;exitX=0.5;exitY=1;exitDx=0;exitDy=0;entryX=0.5;entryY=0;entryDx=0;entryDy=0;" edge="1" parent="1" source="s3" target="athena">
          <mxGeometry width="50" height="50" relative="1" as="geometry"/>
        </mxCell>
        
        <mxCell id="conn6" value="Train" style="endArrow=classic;html=1;exitX=0.5;exitY=1;exitDx=0;exitDy=0;entryX=0.5;entryY=0;entryDx=0;entryDy=0;" edge="1" parent="1" source="s3" target="sagemaker">
          <mxGeometry width="50" height="50" relative="1" as="geometry"/>
        </mxCell>
        
        <mxCell id="conn7" value="Visualize" style="endArrow=classic;html=1;exitX=0.5;exitY=1;exitDx=0;exitDy=0;entryX=0.5;entryY=0;entryDx=0;entryDy=0;" edge="1" parent="1" source="s3" target="quicksight">
          <mxGeometry width="50" height="50" relative="1" as="geometry"/>
        </mxCell>
        
      </root>
    </mxGraphModel>
  </diagram>
</mxfile> 